<mxfile host="app.diagrams.net" modified="2024-02-28T17:28:38.090Z" agent="Mozilla/5.0 (Windows NT 10.0; Win64; x64) AppleWebKit/537.36 (KHTML, like Gecko) Chrome/122.0.0.0 Safari/537.36" version="23.1.8" etag="L8wNAGfpGLvTHJ_vUU2f" type="github">
  <diagram name="Page-1" id="Tf_M5BG2peygsBf4q-NV">
    <mxGraphModel>
      <root>
        <mxCell id="0" />
        <mxCell id="1" parent="0" />
      </root>
    </mxGraphModel>
  </diagram>
</mxfile>
